<svg width="32" height="32" viewBox="0 0 32 32" fill="none" xmlns="http://www.w3.org/2000/svg">
<path fill-rule="evenodd" clip-rule="evenodd" d="M30.48 6.85002C29.55 7.27002 28.53 7.52002 27.53 7.69002C28 7.61002 28.71 6.75002 28.98 6.40002C29.41 5.87002 29.76 5.27002 29.96 4.61002C29.99 4.56002 30 4.49002 29.96 4.46002C29.9 4.43002 29.85 4.45002 29.8 4.47002C28.68 5.07002 27.53 5.50002 26.3 5.81002C26.2 5.84002 26.12 5.81002 26.06 5.75002C25.96 5.64002 25.86 5.53002 25.75 5.44002C24.51 4.38002 22.92 3.90002 21.35 4.01002C21.35 4.01002 21.36 4.01002 21.37 4.01002H21.25C21.25 4.01002 21.28 4.01002 21.29 4.02002C20.42 4.09002 19.56 4.34002 18.77 4.79002C16.47 6.09002 15.36 8.64002 15.74 11.2C15.76 11.34 15.74 11.36 15.62 11.34C10.81 10.62 6.81999 8.90002 3.58999 5.21002C3.44999 5.05002 3.36999 5.05002 3.25999 5.22002C1.83999 7.34002 2.52999 10.75 4.29999 12.43C4.53999 12.65 4.77999 12.88 5.03999 13.08C4.93999 13.1 3.76999 12.97 2.71999 12.43C2.57999 12.34 2.50999 12.39 2.49999 12.55C2.48999 12.78 2.49999 12.99 2.53999 13.24C2.80999 15.39 4.29999 17.38 6.33999 18.16C6.57999 18.26 6.84999 18.35 7.10999 18.4C6.64999 18.5 6.16999 18.57 4.82999 18.47C4.65999 18.44 4.59999 18.52 4.65999 18.68C5.65999 21.41 7.82999 22.22 9.44999 22.69C9.66999 22.73 9.87999 22.73 10.1 22.78C10.09 22.8 10.07 22.8 10.06 22.82C9.51999 23.64 7.65999 24.25 6.78999 24.55C5.20999 25.1 3.48999 25.35 1.82999 25.19C1.55999 25.15 1.50999 25.15 1.42999 25.19C1.35999 25.24 1.42999 25.3 1.50999 25.37C1.84999 25.59 2.18999 25.79 2.53999 25.98C3.59999 26.54 4.69999 26.99 5.85999 27.31C12.57 29.16 19.95 27.28 24.26 21.65C26.79 18.35 27.77 14.27 27.77 10.17C27.77 9.98002 27.99 9.88002 28.13 9.78002C29.04 9.09002 29.77 8.27002 30.45 7.35002C30.6 7.14002 30.59 6.96002 30.59 6.88002V6.85002C30.59 6.77002 30.59 6.80002 30.48 6.85002Z" fill="#F5F5F5"/>
</svg>
